<?xml version="1.0" standalone="no"?>
<!DOCTYPE svg PUBLIC "-//W3C//DTD SVG 20010904//EN"
 "http://www.w3.org/TR/2001/REC-SVG-20010904/DTD/svg10.dtd">
<svg version="1.0" xmlns="http://www.w3.org/2000/svg"
 width="200.000000pt" height="100.000000pt" viewBox="0 0 335.000000 128.000000"
 preserveAspectRatio="xMidYMid meet">

<g transform="translate(0.000000,128.000000) scale(0.100000,-0.100000)"
fill="#000000" stroke="none">
<path d="M1506 1206 c-31 -53 -31 -53 -8 -59 14 -3 12 -6 -10 -17 -19 -9 -32
-28 -45 -64 -9 -28 -16 -55 -15 -60 2 -4 -1 -13 -7 -20 -7 -9 -41 -126 -41
-142 0 -3 5 -2 10 1 6 3 10 15 10 25 0 10 5 22 10 25 20 12 9 -24 -16 -54 -27
-33 -49 -91 -33 -91 5 0 9 6 9 14 0 8 4 17 9 20 4 3 6 -6 3 -19 -2 -14 -10
-25 -17 -25 -15 0 -27 -38 -13 -42 6 -2 5 -20 -1 -48 -7 -31 -7 -47 1 -51 7
-4 6 -8 -3 -11 -8 -3 -15 -37 -20 -104 -4 -54 -8 -100 -8 -102 -1 -2 -6 0 -12
4 -7 4 -10 1 -7 -7 3 -8 11 -13 17 -12 6 2 11 -2 11 -8 0 -5 5 -7 10 -4 7 4 9
-3 6 -20 -7 -38 -16 -44 -16 -12 0 15 -4 27 -10 27 -13 0 -4 -163 10 -190 13
-24 70 -29 70 -6 0 24 52 27 78 3 19 -18 33 -20 107 -18 110 3 154 17 222 71
90 71 132 120 168 195 45 95 65 171 74 293 9 102 8 104 -24 185 -48 123 -81
182 -112 202 -15 10 -32 24 -36 32 -13 22 -113 16 -210 -13 -50 -15 -93 -22
-98 -17 -4 4 -10 42 -13 83 -3 41 -9 76 -14 78 -5 1 -21 -17 -36 -42z m34 -18
c-1 -26 -3 -30 -10 -16 -6 9 -7 23 -4 32 9 25 14 19 14 -16z m239 -154 c2 -2
-10 -4 -27 -4 -18 0 -32 5 -32 10 0 9 47 4 59 -6z m-2 -25 c65 -24 86 -64 99
-184 5 -50 9 -63 14 -45 12 46 18 -11 8 -75 -10 -65 -4 -84 11 -34 9 32 9 32
10 7 1 -15 -10 -44 -24 -64 -14 -20 -25 -49 -26 -63 0 -14 -24 -71 -52 -126
-49 -94 -55 -100 -98 -116 -57 -21 -156 -36 -121 -18 12 7 22 16 22 21 0 12
-10 10 -26 -7 -26 -25 -41 -20 -82 27 -20 22 -23 32 -17 72 4 25 12 46 17 46
6 0 8 -7 4 -15 -3 -8 -1 -15 4 -15 6 0 10 32 9 73 -1 86 2 117 13 117 5 0 4 9
-2 19 -5 11 -6 21 -1 23 5 2 11 40 14 84 5 90 35 165 97 243 36 44 69 52 127
30z m256 -263 c12 -98 -27 -273 -73 -328 -19 -23 -19 -22 0 35 10 32 15 55 10
52 -13 -8 -13 26 0 45 8 12 10 12 11 -5 1 -12 5 -6 11 15 5 19 10 98 10 175 1
126 2 136 13 100 7 -22 15 -62 18 -89z m-577 79 c-4 -14 -11 -25 -16 -25 -5 0
-7 7 -5 15 3 8 7 22 10 31 9 26 18 8 11 -21z m420 -358 c-14 -29 -35 -63 -46
-77 l-20 -25 10 28 c17 46 75 147 78 136 2 -5 -8 -33 -22 -62z m-27 -97 c-31
-56 -56 -77 -71 -62 -9 9 -8 12 3 12 9 0 30 20 48 45 40 56 50 58 20 5z m-119
-81 c0 -14 -63 -39 -100 -39 -34 0 -42 20 -7 21 12 0 38 7 57 14 44 17 50 17
50 4z m58 -28 c-11 -19 -47 -35 -56 -26 -4 3 57 45 66 45 1 0 -3 -9 -10 -19z
m-65 -48 c-7 -2 -19 -2 -25 0 -7 3 -2 5 12 5 14 0 19 -2 13 -5z m-180 -31 c52
-20 52 -32 -1 -32 -34 0 -98 41 -85 54 7 7 15 5 86 -22z m202 8 c-3 -5 -22
-14 -42 -19 -28 -8 -39 -7 -51 6 -15 14 -14 15 3 9 11 -3 34 -2 50 3 41 12 47
13 40 1z m-391 -15 c3 -8 1 -15 -4 -15 -6 0 -10 7 -10 15 0 8 2 15 4 15 2 0 6
-7 10 -15z"/>
<path d="M1872 710 c0 -19 2 -27 5 -17 2 9 2 25 0 35 -3 9 -5 1 -5 -18z"/>
<path d="M1851 628 c-22 -76 -79 -164 -153 -239 -65 -65 -67 -69 -19 -29 57
47 117 121 149 185 24 49 46 115 40 121 -3 2 -10 -15 -17 -38z"/>
<path d="M515 1161 c-3 -10 -18 -27 -33 -37 -15 -9 -37 -28 -49 -41 -31 -33
-126 -154 -139 -178 -6 -11 -23 -42 -39 -70 -44 -77 -90 -174 -120 -250 -15
-39 -39 -80 -54 -92 -16 -14 -19 -21 -8 -17 22 8 22 9 -14 -77 -18 -41 -32
-91 -32 -111 0 -21 -3 -38 -8 -38 -4 0 -7 -17 -6 -37 1 -28 7 -39 21 -41 19
-4 55 31 56 53 0 5 -7 -1 -16 -13 -8 -12 -22 -22 -30 -22 -21 0 -18 40 4 41
40 1 81 41 151 146 l74 110 81 7 c45 3 95 9 112 12 l31 6 11 -94 c7 -51 14
-113 16 -137 3 -24 10 -49 17 -55 9 -8 11 -7 6 6 -3 9 0 19 7 21 15 6 11 -28
-5 -49 -5 -6 -7 -20 -5 -31 3 -12 8 -42 11 -67 4 -26 12 -49 18 -53 12 -8 44
33 50 67 3 14 15 35 27 48 15 16 25 46 33 95 12 81 14 87 27 67 8 -12 10 -11
10 6 0 12 -4 34 -9 50 -6 16 -11 68 -13 116 l-3 87 30 14 c19 9 31 23 32 36 1
17 -4 21 -31 21 -32 0 -34 2 -40 49 -4 27 -13 51 -20 54 -20 8 -33 126 -15
139 11 7 11 11 1 15 -6 2 -10 8 -8 11 6 12 -11 132 -24 163 -10 24 -18 29 -35
25 -17 -4 -23 1 -31 26 -11 38 -30 47 -39 19z m35 -37 c0 -15 -6 -24 -15 -24
-15 0 -21 40 -9 53 12 11 24 -3 24 -29z m70 -98 c0 -13 3 -31 6 -40 4 -10 1
-16 -7 -16 -7 0 -10 2 -7 6 3 3 2 21 -2 40 -4 19 -4 34 1 34 5 0 9 -11 9 -24z
m-180 -31 c0 -2 -10 -10 -22 -16 -21 -11 -22 -11 -9 4 13 16 31 23 31 12z
m103 -58 c-11 -49 -13 -53 -23 -37 -13 20 -12 33 0 25 6 -4 10 5 10 20 0 14 4
24 9 21 5 -3 7 -16 4 -29z m-49 -49 c-5 -83 -6 -131 -4 -143 1 -5 2 -29 1 -52
l-1 -42 -67 -20 c-37 -11 -69 -18 -72 -16 -6 7 89 227 103 240 7 6 13 23 14
39 2 24 17 56 27 56 2 0 1 -28 -1 -62z m83 -30 c-3 -8 -6 -5 -6 6 -1 11 2 17
5 13 3 -3 4 -12 1 -19z m-226 -40 c-17 -23 -31 -38 -31 -32 0 14 51 86 57 80
3 -3 -9 -24 -26 -48z m224 -17 c3 -5 1 -12 -5 -16 -5 -3 -10 1 -10 9 0 18 6
21 15 7z m-271 -118 c-50 -107 -51 -109 -60 -100 -17 17 76 195 103 197 1 0
-19 -44 -43 -97z m264 22 c1 -13 -3 -27 -8 -30 -6 -4 -10 7 -10 24 0 37 15 42
18 6z m32 -10 c0 -19 -4 -35 -10 -35 -11 0 -14 53 -3 63 11 12 13 8 13 -28z
m130 -69 c0 -3 -4 -8 -10 -11 -5 -3 -10 -1 -10 4 0 6 5 11 10 11 6 0 10 -2 10
-4z m-290 -40 c-44 -17 -128 -31 -118 -21 9 9 105 33 133 33 12 1 6 -5 -15
-12z m160 -60 c0 -3 -4 -8 -10 -11 -5 -3 -10 -1 -10 4 0 6 5 11 10 11 6 0 10
-2 10 -4z m17 -76 c1 -21 -2 -42 -7 -45 -6 -4 -10 12 -10 39 0 56 14 61 17 6z
m-467 -10 c0 -5 -4 -10 -10 -10 -5 0 -10 5 -10 10 0 6 5 10 10 10 6 0 10 -4
10 -10z m14 -34 c-6 -16 -24 -23 -24 -8 0 10 22 33 27 28 2 -2 1 -11 -3 -20z
m-34 -60 c0 -2 -8 -10 -17 -17 -16 -13 -17 -12 -4 4 13 16 21 21 21 13z m480
-50 c0 -3 -4 -8 -10 -11 -5 -3 -10 -1 -10 4 0 6 5 11 10 11 6 0 10 -2 10 -4z
m-17 -149 c-7 -12 -23 3 -23 22 0 28 14 35 21 9 3 -13 4 -26 2 -31z m-16 -49
c-3 -8 -6 -5 -6 6 -1 11 2 17 5 13 3 -3 4 -12 1 -19z"/>
<path d="M2800 1127 c-31 -15 -90 -104 -83 -123 3 -8 -1 -14 -8 -14 -10 0 -10
-3 -1 -12 8 -8 9 -15 1 -25 -9 -10 -8 -13 2 -13 11 0 11 -2 1 -9 -7 -4 -14
-18 -15 -29 -1 -12 -5 -22 -10 -22 -5 0 -7 -6 -4 -14 3 -8 3 -17 -1 -21 -4 -4
-7 -10 -8 -13 0 -4 -5 -25 -12 -47 -20 -75 -26 -156 -11 -166 11 -7 11 -9 -3
-9 -15 0 -17 -17 -20 -165 -2 -91 0 -165 4 -165 7 0 1 -68 -8 -81 -2 -4 5 -9
16 -12 27 -7 47 15 61 66 7 23 18 62 26 87 8 25 17 56 19 69 6 31 22 61 33 61
4 0 29 19 55 41 26 23 50 39 53 36 3 -4 9 -40 13 -82 5 -47 13 -80 22 -88 8
-7 21 -28 28 -47 8 -19 22 -47 32 -62 10 -14 18 -31 18 -37 0 -6 3 -11 8 -11
4 0 13 -13 20 -29 7 -16 25 -41 39 -55 25 -25 25 -26 4 -26 -20 0 -19 -4 16
-46 33 -39 38 -42 41 -25 5 29 18 26 31 -6 9 -24 10 -20 7 27 -2 30 -5 55 -6
55 -1 0 -3 25 -5 55 -3 57 -31 168 -58 233 -9 20 -16 41 -17 45 0 10 -20 74
-30 97 -5 11 -15 42 -24 68 l-15 49 95 109 c52 60 112 126 134 145 22 20 40
41 40 47 0 5 14 32 31 60 19 30 27 53 21 59 -14 14 -177 -77 -256 -144 -39
-33 -116 -106 -170 -161 l-99 -101 6 65 c4 35 12 109 18 164 12 113 12 216 1
227 -4 4 -18 2 -32 -5z m-20 -61 c0 -2 -7 -7 -16 -10 -8 -3 -12 -2 -9 4 6 10
25 14 25 6z m258 -276 c-13 -10 -25 -16 -27 -14 -7 7 31 44 41 38 4 -3 -2 -14
-14 -24z m-292 -52 c-11 -96 -29 -188 -37 -188 -4 0 -6 24 -3 53 4 55 35 197
42 197 3 0 2 -28 -2 -62z m264 18 c0 -3 -4 -8 -10 -11 -5 -3 -10 -1 -10 4 0 6
5 11 10 11 6 0 10 -2 10 -4z m-56 -31 c-4 -8 -10 -15 -15 -15 -5 0 -9 -6 -9
-14 0 -8 -7 -16 -15 -20 -22 -8 -18 5 12 36 31 32 35 34 27 13z m13 -257 c-3
-8 -6 -5 -6 6 -1 11 2 17 5 13 3 -3 4 -12 1 -19z m20 -83 c0 -8 -4 -15 -9 -15
-4 0 -8 7 -8 15 0 8 4 15 8 15 5 0 9 -7 9 -15z m47 -54 c13 -35 14 -46 5 -52
-18 -11 -27 -3 -44 38 -18 42 -18 43 -4 43 5 0 7 -4 4 -10 -3 -5 -2 -10 4 -10
5 0 13 -15 17 -32 4 -18 9 -28 11 -21 2 6 -3 28 -11 48 -9 21 -16 42 -16 48 0
19 16 -6 34 -52z m-364 -31 c0 -5 -2 -10 -4 -10 -3 0 -8 5 -11 10 -3 6 -1 10
4 10 6 0 11 -4 11 -10z m430 -120 c0 -13 -1 -13 -10 0 -5 8 -10 22 -10 30 0
13 1 13 10 0 5 -8 10 -22 10 -30z"/>
<path d="M945 316 c-44 -44 -69 -103 -58 -133 11 -28 42 -53 66 -53 12 0 39
11 59 25 20 14 40 25 43 25 3 0 19 10 35 22 25 18 30 29 30 64 0 62 -29 94
-86 94 -39 0 -50 -5 -89 -44z m59 -81 c-6 -16 -24 -21 -24 -7 0 11 11 22 21
22 5 0 6 -7 3 -15z m36 5 c0 -5 -5 -10 -11 -10 -5 0 -7 5 -4 10 3 6 8 10 11
10 2 0 4 -4 4 -10z m-83 -55 c-4 -8 -11 -15 -17 -15 -14 0 -13 27 3 33 16 6
21 1 14 -18z"/>
<path d="M2283 331 c-75 -54 -95 -141 -43 -185 33 -28 47 -26 96 11 17 13 34
23 38 23 4 0 23 12 43 27 32 25 35 30 30 66 -12 86 -88 113 -164 58z m41 -96
c-4 -8 -8 -15 -10 -15 -2 0 -4 7 -4 15 0 8 4 15 10 15 5 0 7 -7 4 -15z m-44
-50 c0 -8 -7 -15 -15 -15 -8 0 -15 7 -15 15 0 8 7 15 15 15 8 0 15 -7 15 -15z"/>
<path d="M2635 160 c3 -5 8 -10 11 -10 2 0 4 5 4 10 0 6 -5 10 -11 10 -5 0 -7
-4 -4 -10z"/>
</g>
</svg>
